<svg width="44" height="44" viewBox="0 0 44 44" fill="none" xmlns="http://www.w3.org/2000/svg">
<g clip-path="url(#clip0_0_223)">
<path d="M11.7331 16.8667H12.0998C13.5114 16.8667 14.6664 18.0217 14.6664 19.4334V32.2667C14.6664 33.6784 13.5114 34.8334 12.0998 34.8334H11.7331C10.3214 34.8334 9.16644 33.6784 9.16644 32.2667V19.4334C9.16644 18.0217 10.3214 16.8667 11.7331 16.8667ZM21.9998 9.16669C23.4114 9.16669 24.5664 10.3217 24.5664 11.7334V32.2667C24.5664 33.6784 23.4114 34.8334 21.9998 34.8334C20.5881 34.8334 19.4331 33.6784 19.4331 32.2667V11.7334C19.4331 10.3217 20.5881 9.16669 21.9998 9.16669ZM32.2664 23.8334C33.6781 23.8334 34.8331 24.9884 34.8331 26.4V32.2667C34.8331 33.6784 33.6781 34.8334 32.2664 34.8334C30.8548 34.8334 29.6998 33.6784 29.6998 32.2667V26.4C29.6998 24.9884 30.8548 23.8334 32.2664 23.8334Z" fill="#DA001A"/>
</g>
<defs>
<clipPath id="clip0_0_223">
<rect width="44" height="44" fill="white"/>
</clipPath>
</defs>
</svg>
