<svg width="84" height="32" viewBox="0 0 84 32" fill="none" xmlns="http://www.w3.org/2000/svg">
<path d="M74.6667 2.66675H61.3333C57.6514 2.66675 54.6667 5.65152 54.6667 9.33342V22.6667C54.6667 26.3486 57.6514 29.3334 61.3333 29.3334H74.6667C78.3486 29.3334 81.3333 26.3486 81.3333 22.6667V9.33342C81.3333 5.65152 78.3486 2.66675 74.6667 2.66675Z" stroke="#253685" stroke-width="2.97042" stroke-linecap="round" stroke-linejoin="round"/>
<path d="M73.3333 15.1602C73.4979 16.2698 73.3084 17.4031 72.7917 18.3988C72.275 19.3946 71.4575 20.202 70.4555 20.7064C69.4535 21.2107 68.3179 21.3863 67.2104 21.2081C66.1028 21.0298 65.0797 20.5069 64.2865 19.7137C63.4932 18.9205 62.9703 17.8973 62.7921 16.7898C62.6139 15.6822 62.7894 14.5467 63.2938 13.5447C63.7981 12.5426 64.6056 11.7251 65.6013 11.2085C66.5971 10.6918 67.7304 10.5023 68.84 10.6668C69.9719 10.8347 71.0198 11.3621 71.8289 12.1712C72.6381 12.9804 73.1655 14.0283 73.3333 15.1602Z" stroke="#253685" stroke-width="2.97042" stroke-linecap="round" stroke-linejoin="round"/>
<path d="M75.3333 8.66675H75.3471" stroke="#253685" stroke-width="2.97042" stroke-linecap="round" stroke-linejoin="round"/>
<path d="M24 2.66675H20C18.2319 2.66675 16.5362 3.36913 15.286 4.61937C14.0357 5.86961 13.3333 7.5653 13.3333 9.33341V13.3334H9.33334V18.6667H13.3333V29.3334H18.6667V18.6667H22.6667L24 13.3334H18.6667V9.33341C18.6667 8.97979 18.8072 8.64065 19.0572 8.39061C19.3073 8.14056 19.6464 8.00008 20 8.00008H24V2.66675Z" stroke="#253685" stroke-width="2" stroke-linecap="round" stroke-linejoin="round"/>
</svg>
