<svg width="23" height="22" viewBox="0 0 23 22" fill="none" xmlns="http://www.w3.org/2000/svg">
<path d="M20.2913 3.49586C19.7805 2.98486 19.1741 2.57951 18.5066 2.30294C17.8392 2.02638 17.1238 1.88403 16.4013 1.88403C15.6788 1.88403 14.9634 2.02638 14.2959 2.30294C13.6285 2.57951 13.022 2.98486 12.5113 3.49586L11.4513 4.55586L10.3913 3.49586C9.3596 2.46417 7.96032 1.88457 6.50129 1.88457C5.04226 1.88457 3.64298 2.46417 2.61129 3.49586C1.5796 4.52755 1 5.92683 1 7.38586C1 8.84489 1.5796 10.2442 2.61129 11.2759L3.67129 12.3359L11.4513 20.1159L19.2313 12.3359L20.2913 11.2759C20.8023 10.7651 21.2076 10.1587 21.4842 9.49121C21.7608 8.82375 21.9031 8.10835 21.9031 7.38586C21.9031 6.66337 21.7608 5.94796 21.4842 5.2805C21.2076 4.61304 20.8023 4.00661 20.2913 3.49586V3.49586Z" fill="#D80000" stroke="#D80000" stroke-width="2" stroke-linecap="round" stroke-linejoin="round"/>
</svg>
